<svg width="268" height="180" viewBox="0 0 268 180" fill="none" xmlns="http://www.w3.org/2000/svg">
<path d="M256.975 56.59C257.016 57.326 256.962 58.075 256.777 58.819L240.277 124.819C239.445 128.144 236.465 130.482 233.039 130.5L134.039 131C134.026 131 134.014 131 134.001 131H35C31.556 131 28.555 128.654 27.723 125.312L11.223 59.062C11.033 58.298 10.978 57.528 11.026 56.773C4.643 54.762 0 48.789 0 41.75C0 33.065 7.065 26 15.75 26C24.435 26 31.5 33.065 31.5 41.75C31.5 46.641 29.259 51.017 25.75 53.908L46.408 74.722C51.629 79.983 58.874 82.999 66.286 82.999C75.05 82.999 83.406 78.837 88.668 71.864L122.618 26.88C119.766 24.03 118 20.092 118 15.75C118 7.065 125.065 0 133.75 0C142.435 0 149.5 7.065 149.5 15.75C149.5 19.962 147.828 23.785 145.125 26.614C145.134 26.626 145.145 26.636 145.154 26.649L178.858 71.757C184.118 78.797 192.504 83 201.293 83C208.773 83 215.807 80.087 221.096 74.797L241.884 54.009C238.301 51.119 236 46.701 236 41.75C236 33.065 243.065 26 251.75 26C260.435 26 267.5 33.065 267.5 41.75C267.5 48.601 263.095 54.428 256.975 56.59ZM238.667 154.5C238.667 150.358 235.309 147 231.167 147H37.167C33.025 147 29.667 150.358 29.667 154.5V172.5C29.667 176.642 33.025 180 37.167 180H231.167C235.309 180 238.667 176.642 238.667 172.5V154.5Z" fill="black"/>
</svg>
